<svg xmlns="http://www.w3.org/2000/svg" xmlns:xlink="http://www.w3.org/1999/xlink"><defs><style>
    .sprite-symbol-usage {display: none;}
    .sprite-symbol-usage:target {display: inline;}
  </style><symbol viewBox="0 0 31.709 31.709" id="approve"><path d="M10.595 25.719H4.696c-1.127 0-2.06-.886-2.06-2.013V5.42c0-1.127.933-2.006 2.06-2.006h14.277c1.127 0 2.047.879 2.047 2.006v15.323l2.637-3.135V3.462c0-1.482-1.172-2.684-2.652-2.684H2.559A2.562 2.562 0 000 3.354v22.382a2.674 2.674 0 002.669 2.688h10.358l-1.224-1.063a4.675 4.675 0 01-1.208-1.642z" /><path d="M17.875 6.794H6.034c-.728 0-1.314.591-1.314 1.318 0 .726.587 1.317 1.314 1.317h11.84c.728 0 1.312-.591 1.312-1.317a1.313 1.313 0 00-1.311-1.318zM17.875 11.187H6.034a1.318 1.318 0 000 2.636h11.84c.728 0 1.312-.594 1.312-1.318a1.311 1.311 0 00-1.311-1.318zM17.875 15.581H6.034c-.728 0-1.314.558-1.314 1.286 0 .725.587 1.282 1.314 1.282h11.84c.728 0 1.312-.56 1.312-1.282.002-.728-.584-1.286-1.311-1.286zM4.719 21.056c0 .727.587 1.283 1.314 1.283h4.418c.185-.473.469-1.022.857-1.479.408-.473.889-.82 1.412-1.092H6.034c-.728.003-1.315.563-1.315 1.288zM17.875 19.771h-.988c.324.137.633.366.916.611l1.312 1.123c.05-.135.076-.28.076-.437a1.305 1.305 0 00-1.316-1.297z" /><path d="M30.898 16.249a2.298 2.298 0 00-3.246.26l-7.564 8.867-3.781-3.248a2.306 2.306 0 00-3.248.248 2.3 2.3 0 00.248 3.246l5.533 4.752a2.318 2.318 0 001.682.549 2.304 2.304 0 001.572-.801l9.066-10.627a2.303 2.303 0 00-.262-3.246z" /></symbol><symbol viewBox="0 0 408.483 408.483" id="delete"><path d="M87.748 388.784c.461 11.01 9.521 19.699 20.539 19.699h191.911c11.018 0 20.078-8.689 20.539-19.699l13.705-289.316H74.043l13.705 289.316zm159.907-217.455a8.35 8.35 0 018.35-8.349h13.355a8.351 8.351 0 018.35 8.349v165.293a8.35 8.35 0 01-8.35 8.349h-13.355a8.35 8.35 0 01-8.35-8.349V171.329zm-58.439 0a8.35 8.35 0 018.349-8.349h13.355a8.35 8.35 0 018.349 8.349v165.293a8.348 8.348 0 01-8.349 8.349h-13.355a8.348 8.348 0 01-8.349-8.349V171.329zm-58.441 0a8.35 8.35 0 018.349-8.349h13.356a8.35 8.35 0 018.349 8.349v165.293a8.349 8.349 0 01-8.349 8.349h-13.356a8.348 8.348 0 01-8.349-8.349V171.329zM343.567 21.043h-88.535V4.305A4.305 4.305 0 00250.727 0h-92.971a4.305 4.305 0 00-4.304 4.305v16.737H64.916c-7.125 0-12.9 5.776-12.9 12.901V74.47h304.451V33.944c0-7.125-5.775-12.901-12.9-12.901z" /></symbol><symbol viewBox="0 0 32.5 32.5" id="done"><circle data-name="Ellipse 2" class="cls-1" cx="16.25" cy="16.25" r="16.25" /><path data-name="Path 5" d="M24.7 9.75l-10.4 11.7-6.5-5.2" fill="none" stroke="#fff" stroke-linecap="round" stroke-linejoin="round" stroke-miterlimit="10" stroke-width="2" /></symbol><symbol viewBox="0 -1 401.523 401" id="edit"><path d="M370.59 250.973c-5.524 0-10 4.476-10 10v88.789c-.02 16.562-13.438 29.984-30 30H50c-16.563-.016-29.98-13.438-30-30V89.172c.02-16.559 13.438-29.98 30-30h88.79c5.523 0 10-4.477 10-10 0-5.52-4.477-10-10-10H50c-27.602.031-49.969 22.398-50 50v260.594c.031 27.601 22.398 49.968 50 50h280.59c27.601-.032 49.969-22.399 50-50v-88.793c0-5.524-4.477-10-10-10zm0 0" /><path d="M376.629 13.441c-17.574-17.574-46.067-17.574-63.64 0L134.581 191.848a9.997 9.997 0 00-2.566 4.402l-23.461 84.7a9.997 9.997 0 0012.304 12.308l84.7-23.465a9.997 9.997 0 004.402-2.566l178.402-178.41c17.547-17.587 17.547-46.055 0-63.641zM156.37 198.348L302.383 52.332l47.09 47.09-146.016 146.016zm-9.406 18.875l37.62 37.625-52.038 14.418zM374.223 74.676L363.617 85.28l-47.094-47.094 10.61-10.605c9.762-9.762 25.59-9.762 35.351 0l11.739 11.734c9.746 9.774 9.746 25.59 0 35.36zm0 0" /></symbol></defs><use id="approve-usage" xlink:href="#approve" class="sprite-symbol-usage" /><use id="delete-usage" xlink:href="#delete" class="sprite-symbol-usage" /><use id="done-usage" xlink:href="#done" class="sprite-symbol-usage" /><use id="edit-usage" xlink:href="#edit" class="sprite-symbol-usage" /></svg>